<?xml version="1.0" encoding="utf-8"?>
<!-- Generator: Adobe Illustrator 16.0.0, SVG Export Plug-In . SVG Version: 6.00 Build 0)  -->
<!DOCTYPE svg PUBLIC "-//W3C//DTD SVG 1.1//EN" "http://www.w3.org/Graphics/SVG/1.1/DTD/svg11.dtd">
<svg version="1.1" id="Layer_1" xmlns="http://www.w3.org/2000/svg" xmlns:xlink="http://www.w3.org/1999/xlink" x="0px" y="0px"
	 width="24px" height="24px" viewBox="0 0 24 24" enable-background="new 0 0 24 24" xml:space="preserve">
<path fill="#78909C" d="M9,7v2h4v2h-2c-1.104,0-2,0.896-2,2v4h2h4v-2h-4v-2h2c1.104,0,2-0.896,2-2V9c0-1.104-0.896-2-2-2H9 M12,2
	c5.523,0,10,4.477,10,10c0,5.523-4.477,10-10,10C6.477,22,2,17.523,2,12C2,6.477,6.477,2,12,2z"/>
</svg>
