<?xml version="1.0" encoding="utf-8"?>
<!-- Generator: Adobe Illustrator 16.0.0, SVG Export Plug-In . SVG Version: 6.00 Build 0)  -->
<!DOCTYPE svg PUBLIC "-//W3C//DTD SVG 1.1//EN" "http://www.w3.org/Graphics/SVG/1.1/DTD/svg11.dtd">
<svg version="1.1" xmlns="http://www.w3.org/2000/svg" xmlns:xlink="http://www.w3.org/1999/xlink" x="0px" y="0px" width="24px"
	 height="24px" viewBox="0 0 24 24" enable-background="new 0 0 24 24" xml:space="preserve">
<g id="Layer_1">
</g>
<g id="Layer_2">
	<path fill="#6F8692" d="M21.922,12c0,5.479-4.442,9.922-9.922,9.922c-5.48,0-9.922-4.442-9.922-9.922
		c0-5.48,4.441-9.922,9.922-9.922C17.479,2.078,21.922,6.52,21.922,12z M12.307,15.809c0.596,0.695,1.405,1.043,2.431,1.043
		s1.837-0.348,2.434-1.043c0.597-0.694,0.896-1.639,0.896-2.833v-2.051c0-1.194-0.299-2.137-0.896-2.83s-1.408-1.039-2.434-1.039
		s-1.835,0.346-2.431,1.039c-0.594,0.693-0.892,1.636-0.892,2.83v2.051C11.415,14.17,11.712,15.114,12.307,15.809z M14.737,9.523
		c0.446,0,0.67,0.285,0.67,0.854v3.145c0,0.569-0.224,0.854-0.67,0.854c-0.442,0-0.663-0.285-0.663-0.854v-3.145
		C14.074,9.808,14.295,9.523,14.737,9.523z M7.534,7.444v9.331h2.646V7.444H7.534z"/>
</g>
</svg>
