<?xml version="1.0" encoding="utf-8"?>
<!-- Generator: Adobe Illustrator 16.0.0, SVG Export Plug-In . SVG Version: 6.00 Build 0)  -->
<!DOCTYPE svg PUBLIC "-//W3C//DTD SVG 1.1//EN" "http://www.w3.org/Graphics/SVG/1.1/DTD/svg11.dtd">
<svg version="1.1" id="Layer_1" xmlns="http://www.w3.org/2000/svg" xmlns:xlink="http://www.w3.org/1999/xlink" x="0px" y="0px"
	 width="24px" height="24px" viewBox="0 0 24 24" enable-background="new 0 0 24 24" xml:space="preserve">
<path fill="#6F8692" d="M11,13h2v2h-2V13 M11,9h2v2h-2V9 M11,17h2c1.104,0,2-0.896,2-2v-1.5c0-0.828-0.672-1.5-1.5-1.5
	c0.828,0,1.5-0.671,1.5-1.5V9c0-1.11-0.9-2-2-2h-2C9.896,7,9,7.896,9,9v1.5c0,0.829,0.671,1.5,1.5,1.5C9.671,12,9,12.672,9,13.5V15
	C9,16.109,9.9,17,11,17 M12,2c5.523,0,10,4.477,10,10c0,5.523-4.477,10-10,10C6.477,22,2,17.523,2,12C2,6.477,6.477,2,12,2z"/>
</svg>
